<svg xmlns="http://www.w3.org/2000/svg" width="25" height="25" viewBox="0 0 512 485" version="1.1"><path d="M 111.657 167.731 C 134.893 225.912, 150.157 262.828, 151.875 265 C 155.972 270.179, 163.275 274.708, 169.670 276.035 C 179.836 278.146, 192.334 273.495, 198.610 265.267 C 200.084 263.335, 209.079 242.347, 218.599 218.627 L 235.909 175.500 235.954 225.750 L 236 276 256.500 276 L 277 276 277 175 L 277 74 254.693 74 L 232.386 74 204.007 144.981 C 188.400 184.021, 175.388 215.721, 175.092 215.425 C 174.797 215.130, 161.920 183.301, 146.477 144.694 L 118.400 74.500 96.304 74.231 L 74.208 73.962 111.657 167.731 M 74.700 235.633 C 74.315 236.018, 74 245.258, 74 256.167 L 74 276 94.500 276 L 115 276 115 266 L 115 256 105.035 256 L 95.070 256 94.785 245.750 L 94.500 235.500 84.950 235.216 C 79.698 235.060, 75.086 235.248, 74.700 235.633 M 76.047 328.952 C 75.603 329.803, 75.073 340.175, 74.870 352 L 74.500 373.500 78.250 373.810 C 80.313 373.981, 82.070 373.981, 82.155 373.810 C 82.240 373.640, 82.578 366.750, 82.905 358.500 L 83.500 343.500 87.498 353.750 L 91.496 364 95.090 364 C 98.649 364, 98.720 363.917, 102.511 355.250 C 104.616 350.438, 106.712 346.072, 107.169 345.550 C 107.626 345.028, 108.026 349.303, 108.058 355.050 C 108.089 360.798, 108.434 367.300, 108.825 369.500 C 109.512 373.378, 109.655 373.500, 113.517 373.500 L 117.500 373.500 117.126 359.500 C 116.920 351.800, 116.470 341.456, 116.126 336.514 L 115.500 327.528 111.033 327.531 L 106.566 327.533 101.572 339.767 C 98.826 346.495, 96.312 352, 95.986 352 C 95.660 352, 93.167 346.504, 90.447 339.786 L 85.500 327.573 81.177 327.488 C 78.224 327.430, 76.599 327.894, 76.047 328.952 M 163.300 328.324 C 161.915 330.565, 149.141 372.419, 149.610 373.178 C 150.406 374.466, 156.640 374.140, 157.787 372.750 C 158.355 372.063, 159.225 369.925, 159.720 368 L 160.621 364.500 167.719 364.208 L 174.817 363.916 176.039 367.708 C 176.711 369.794, 177.707 372.063, 178.253 372.750 C 179.318 374.092, 186.597 374.494, 187.314 373.250 C 187.764 372.469, 174.484 329.151, 173.491 328.157 C 172.487 327.154, 163.936 327.294, 163.300 328.324 M 219.371 328.476 C 219.145 329.065, 219.081 339.437, 219.230 351.524 L 219.500 373.500 224.250 373.805 L 229 374.110 229 351.055 C 229 329.814, 228.862 327.990, 227.250 327.871 C 221.074 327.416, 219.738 327.519, 219.371 328.476 M 242.094 328.452 C 241.143 329.674, 230 349.859, 230 350.360 C 230 351.001, 241.675 370.903, 242.958 372.449 C 244.383 374.167, 251.511 374.600, 252.482 373.029 C 252.812 372.495, 250.195 367.041, 246.667 360.909 L 240.251 349.761 246.238 339.327 C 249.531 333.588, 251.930 328.597, 251.569 328.236 C 250.486 327.152, 242.972 327.324, 242.094 328.452 M 291.424 328.895 C 286.302 331.221, 283.525 336.425, 284.305 342.238 C 284.972 347.208, 287.835 350.300, 293.823 352.513 C 301.177 355.230, 303 356.698, 303 359.901 C 303 361.471, 302.438 363.208, 301.750 363.762 C 299.477 365.593, 294.229 366.139, 289.956 364.988 C 285.210 363.710, 284.305 364.223, 283.409 368.704 C 282.815 371.674, 282.991 371.904, 286.640 372.917 C 292.784 374.623, 300.878 374.238, 305.456 372.021 C 310.506 369.577, 313.161 365.274, 313.250 359.393 C 313.357 352.328, 310.735 349.636, 298.500 344.246 C 295.128 342.761, 294.500 342.019, 294.500 339.516 C 294.500 335.544, 298.082 334.212, 304.973 335.624 C 309.917 336.637, 309.933 336.631, 310.965 333.670 C 312.457 329.389, 312.431 329.346, 307.557 328.119 C 301.213 326.521, 296.110 326.767, 291.424 328.895 M 408.230 327.772 C 407.254 328.441, 407.023 333.821, 407.230 351.071 L 407.500 373.500 416.494 373.792 C 431.179 374.270, 438 370.344, 438 361.412 C 438 355.873, 436.545 352.753, 432.980 350.647 L 430.129 348.963 432.453 346.456 C 435.395 343.282, 436.122 339.521, 434.653 335.084 C 432.900 329.790, 428.412 327.671, 418.064 327.250 C 413.354 327.059, 408.929 327.294, 408.230 327.772 M 347 350.500 L 347 373 360 373 L 373 373 373 369 L 373 365 364.500 365 L 356 365 356 359.500 L 356 354 362.481 354 C 368.509 354, 369.005 353.830, 369.571 351.572 C 369.906 350.237, 369.885 348.212, 369.523 347.072 C 368.947 345.259, 368.062 345, 362.433 345 L 356 345 356 340.500 L 356 336 364.500 336 L 373 336 373 332 L 373 328 360 328 L 347 328 347 350.500 M 416.696 334.637 C 416.313 335.020, 416 337.733, 416 340.667 L 416 346 419.345 346 C 421.316 346, 423.370 345.249, 424.345 344.171 C 426.386 341.916, 426.495 337.656, 424.552 336.043 C 422.801 334.590, 417.663 333.671, 416.696 334.637 M 167.519 341.107 C 167.228 341.873, 166.124 345.538, 165.066 349.250 L 163.141 356 168.178 356 C 172.567 356, 173.126 355.775, 172.532 354.250 C 172.157 353.288, 171.160 349.800, 170.317 346.500 C 168.591 339.748, 168.269 339.128, 167.519 341.107 M 416.654 353.679 C 416.294 354.039, 416 356.958, 416 360.167 L 416 366 420.345 366 C 423.284 366, 425.225 365.408, 426.345 364.171 C 428.294 362.018, 428.537 356.668, 426.750 355.259 C 425.163 354.007, 417.522 352.812, 416.654 353.679" stroke="none" fill="#1c2444" fill-rule="evenodd"/><path d="M 397 84.500 L 397 95 407 95 L 417 95 417 105 L 417 115 427.500 115 L 438 115 438 94.500 L 438 74 417.500 74 L 397 74 397 84.500 M 347.073 82.122 C 337.892 86.709, 328.147 96.880, 323.024 107.222 C 311.050 131.392, 315.467 158.548, 334.459 177.541 C 345.476 188.557, 357.851 194.170, 374.179 195.557 C 386.196 196.577, 392.037 200.057, 395.452 208.232 C 399.431 217.754, 395.291 228.226, 385.579 233.205 C 380.166 235.980, 371.663 235.366, 366.293 231.813 C 362.422 229.251, 358.624 223.162, 357.522 217.750 L 356.962 215 336.366 215 L 315.770 215 316.439 220.750 C 319.479 246.870, 337.356 267.965, 362 274.515 C 369.239 276.439, 385.011 276.409, 392.505 274.457 C 403.155 271.683, 410.876 267.139, 419.603 258.511 C 431.927 246.328, 438 232.242, 438 215.839 C 438 205.350, 436.543 199.015, 431.887 189.263 C 422.407 169.402, 404.529 157.147, 381.893 154.990 C 366.928 153.564, 360.389 149.161, 358.106 138.972 C 356.190 130.422, 359.031 124.074, 368 116.868 C 374.608 111.558, 377.426 106.348, 377.394 99.500 C 377.352 90.673, 371.701 83.017, 363.101 80.138 C 357.641 78.310, 353.732 78.794, 347.073 82.122 M 99.750 255.737 C 102.638 255.939, 107.362 255.939, 110.250 255.737 C 113.138 255.535, 110.775 255.370, 105 255.370 C 99.225 255.370, 96.862 255.535, 99.750 255.737 M 346.471 350.749 L 346.500 373.500 359.751 373.545 L 373.003 373.591 360.020 373.266 L 347.037 372.942 346.740 350.471 L 346.442 327.999 346.471 350.749 M 416.310 340.500 C 416.315 343.800, 416.502 345.029, 416.725 343.232 C 416.947 341.435, 416.943 338.735, 416.715 337.232 C 416.486 335.729, 416.304 337.200, 416.310 340.500 M 416.412 354.369 C 416.123 355.122, 416.054 358.160, 416.258 361.119 L 416.630 366.500 416.815 360.323 C 416.963 355.378, 417.349 354.055, 418.750 353.689 C 420.390 353.261, 420.388 353.225, 418.719 353.116 C 417.739 353.052, 416.701 353.616, 416.412 354.369 M 164.750 364.723 C 166.537 364.945, 169.463 364.945, 171.250 364.723 C 173.037 364.502, 171.575 364.320, 168 364.320 C 164.425 364.320, 162.963 364.502, 164.750 364.723 M 76.655 388.829 C 73.131 392.723, 75.218 398.765, 80.660 400.420 C 81.848 400.782, 83.381 401.754, 84.067 402.581 C 85.928 404.823, 83.821 406.360, 79.137 406.177 C 76.375 406.068, 75.025 406.492, 74.599 407.601 C 73.581 410.256, 74.886 411, 80.559 411 C 87.099 411, 90.008 408.762, 89.985 403.750 C 89.965 399.493, 89.163 398.384, 84.783 396.554 C 80.560 394.789, 79.815 393.917, 80.956 392.070 C 81.527 391.147, 82.854 390.938, 85.268 391.391 C 88.199 391.940, 88.837 391.732, 89.269 390.080 C 89.987 387.332, 89.365 387, 83.488 387 C 79.742 387, 77.852 387.506, 76.655 388.829 M 120.521 389.388 C 116.010 393.899, 116.010 404.101, 120.521 408.612 C 123.120 411.211, 129.455 411.897, 133.055 409.970 C 139.505 406.519, 139.505 391.481, 133.055 388.030 C 129.455 386.103, 123.120 386.789, 120.521 389.388 M 166 399 L 166 411 172.500 411 C 178.767 411, 179 410.910, 179 408.500 C 179 406.250, 178.600 406, 175 406 L 171 406 171 396.500 C 171 387.033, 170.991 387, 168.500 387 L 166 387 166 399 M 205.006 394.250 C 205.012 403.005, 206.431 408.625, 208.978 409.988 C 211.386 411.277, 217.580 411.295, 219.961 410.021 C 222.687 408.562, 224 403.631, 224 394.851 L 224 387 221 387 L 218 387 218 395.965 C 218 403.529, 217.723 405.078, 216.224 405.880 C 215.098 406.483, 213.818 406.478, 212.724 405.866 C 211.292 405.064, 211 403.384, 211 395.950 L 211 387 208 387 L 205 387 205.006 394.250 M 250.556 387.910 C 249.479 389.652, 251.230 392, 253.607 392 C 255.963 392, 256 392.147, 256 401.500 L 256 411 259 411 L 262 411 262 401.500 L 262 392 265 392 C 267.533 392, 268 391.611, 268 389.500 C 268 387.031, 267.896 387, 259.559 387 C 254.916 387, 250.865 387.409, 250.556 387.910 M 295 399 L 295 411 297.500 411 L 300 411 300 399 L 300 387 297.500 387 L 295 387 295 399 M 331.521 389.388 C 328.732 392.177, 327.497 397.504, 328.455 402.612 C 329.446 407.896, 332.986 411, 338.020 411 C 343.170 411, 345.566 409.740, 347.490 406.020 C 350.502 400.195, 348.649 390.488, 344.055 388.030 C 340.455 386.103, 334.120 386.789, 331.521 389.388 M 377 399 L 377 411 379.500 411 C 381.919 411, 382 410.782, 382.005 404.250 L 382.011 397.500 386.061 404.250 C 389.294 409.638, 390.604 411, 392.555 411 L 395 411 395 399 L 395 387 392.500 387 C 390.064 387, 390 387.184, 390 394.233 L 390 401.467 385.750 394.243 C 382.483 388.690, 380.979 387.017, 379.250 387.009 C 377.041 387, 377 387.219, 377 399 M 424.696 388.783 C 423.763 389.814, 423 392.015, 423 393.674 C 423 396.973, 425.003 399.290, 429.252 400.906 C 431.001 401.570, 432 402.687, 432 403.975 C 432 406.001, 431.598 406.150, 425.500 406.385 C 423.205 406.473, 422.500 406.970, 422.500 408.500 C 422.500 410.214, 423.269 410.544, 427.875 410.807 C 434.443 411.181, 438 408.607, 438 403.481 C 438 400.083, 436.316 398.111, 431.500 395.869 C 427.055 393.801, 427.582 391.500, 432.500 391.500 C 435.833 391.500, 436.500 391.167, 436.500 389.500 C 436.500 387.803, 435.735 387.455, 431.446 387.205 C 427.521 386.975, 426.013 387.328, 424.696 388.783 M 125 393 C 122.557 395.443, 122.325 401.592, 124.557 404.777 C 127.857 409.490, 132 406.274, 132 399 C 132 395.918, 131.426 393.569, 130.429 392.571 C 128.370 390.513, 127.411 390.589, 125 393 M 336 393 C 333.557 395.443, 333.325 401.592, 335.557 404.777 C 338.857 409.490, 343 406.274, 343 399 C 343 395.918, 342.426 393.569, 341.429 392.571 C 339.370 390.513, 338.411 390.589, 336 393" stroke="none" fill="#7cccdd" fill-rule="evenodd"/></svg>